<svg width="1476" height="632" viewBox="0 0 1476 632" fill="none" xmlns="http://www.w3.org/2000/svg">
<g clip-path="url(#clip0_60_2)">
<path d="M855.183 1.49512C917.603 -8.63214 976.415 33.7604 986.542 96.1807C989.043 111.597 988.338 126.794 984.922 141.091C1012.45 139.611 1041.35 145.643 1068.92 161.677C1084.92 150.469 1104.01 143.211 1124.88 141.448C1141.98 140.005 1158.51 142.396 1173.63 147.902C1184.53 144.711 1196.25 142.39 1208.71 141.413L1210.68 141.271C1234.41 139.727 1254.44 144.138 1271.16 151.67C1285.15 146.562 1300.73 142.742 1317.68 141.413L1319.66 141.271C1402.99 135.848 1440.75 203.89 1449.6 222.64C1461.83 248.56 1467.25 276.652 1470.15 296.536C1476.34 338.998 1476.67 386.555 1475.47 417.017C1472.98 480.204 1419.74 529.414 1356.56 526.929C1338.45 526.216 1321.49 521.334 1306.56 513.244C1289.08 522.722 1268.9 527.767 1247.58 526.929C1229.33 526.211 1212.25 521.261 1197.25 513.061C1179.44 522.778 1158.83 527.889 1137.09 526.866C1112.88 525.727 1090.78 517.148 1072.9 503.444C1043.02 521.228 1009.01 528.978 976.684 526.597C968.116 525.965 960.015 524.64 952.381 522.78C948.712 533.584 943.328 545.819 935.309 557.901C913.591 590.623 872.998 626.32 817.133 631.419C782.559 634.574 753.143 624.81 734.106 614.502L734.105 614.501C723.358 608.681 713.959 602.615 704.939 595.325C701.148 592.261 697.993 589.418 697.17 588.685C697.036 588.565 696.927 588.469 696.841 588.393C676.379 571.589 663.229 549.14 657.826 525.123C639.513 518.893 624.299 509.699 612.185 500.237C607.456 503.061 598.397 508.36 587.6 513.185C576.897 517.966 557.096 525.735 532.304 527.153L532.305 527.154C512.708 528.275 496.894 524.164 491.095 522.553C486.493 521.274 480.614 519.38 474.123 516.569C470.569 515.031 462.519 511.423 453.145 504.928C410.147 534.764 349.63 545.055 293.792 515.506C256.768 539.015 209.964 538.886 173.409 516.849C150.312 530.712 122.258 536.529 93.6865 531.242C31.5056 519.736 -9.57456 460 1.93161 397.819C3.33683 390.225 4.52686 383.822 6.26266 371.269C7.99194 358.762 10.3522 339.416 13.6015 300.102C16.9128 260.037 20.9138 201.836 22.4336 169.403C22.8094 161.382 22.9542 156.747 23.0019 153.974C23.0436 151.548 23.0043 150.902 23.0019 150.843C22.9616 149.845 22.3076 140.797 22.3076 126.518C22.3077 63.2811 73.5711 12.0177 136.808 12.0176C200.044 12.0176 251.308 63.281 251.308 126.518C251.308 134.708 251.455 132.667 251.816 141.617C251.951 144.959 252.018 148.341 252.019 152.024C267.79 152.66 283.299 156.548 297.507 163.426C314.601 155.232 332.692 150.1 350.807 148.047C362.179 127.035 380.056 109.624 402.481 99.0264C413.398 39.8291 468.759 -1.28057 529.259 6.27734C559.92 10.1077 586.225 25.7316 604.198 48.0273C622.69 43.8673 641.95 39.6858 661.37 35.709C726.838 22.3027 791.417 11.8407 855.183 1.49512ZM942.123 103.387C935.976 65.4987 900.278 39.7681 862.39 45.915C798.475 56.2847 734.808 66.6041 670.397 79.7939C639.565 86.1077 609.107 92.9524 581.495 99.4111C573.677 74.1078 551.667 54.4269 523.681 50.9307C485.593 46.1725 450.86 73.1916 446.102 111.279C445.123 119.112 444.701 126.704 444.458 132.703C442.988 133.062 441.674 133.384 440.527 133.663C438.771 134.091 437.408 134.423 436.486 134.647C436.025 134.76 435.674 134.845 435.438 134.902C435.321 134.931 435.233 134.952 435.174 134.967C435.144 134.974 435.122 134.98 435.107 134.983C435.1 134.985 435.094 134.986 435.091 134.987C435.089 134.988 435.088 134.988 435.087 134.988L442.699 166.271V166.273L435.086 134.988C406.589 141.924 386.511 165.507 382.673 192.886C380.83 192.649 378.956 192.457 377.051 192.316C349.917 190.318 320.488 198.339 296.06 216.692C274.009 195.149 239.424 190.249 211.751 206.854C209.414 208.257 206.978 209.749 204.395 211.354C205.148 198.982 205.783 187.577 206.231 178.017C207.058 160.381 207.178 151.505 206.853 143.43C206.555 136.043 206.308 135.905 206.308 126.518C206.308 88.1339 175.191 57.0176 136.808 57.0176C98.4239 57.0177 67.3077 88.1339 67.3076 126.518C67.3076 139.603 67.8626 146.472 67.9658 149.03C68.0412 150.901 68.1615 154.913 67.3838 171.51C65.8308 204.65 61.7864 263.418 58.4482 303.808C55.1477 343.742 52.7056 363.931 50.8388 377.432C48.9681 390.961 47.6396 398.123 46.1806 406.008C39.1967 443.751 64.132 480.009 101.875 486.993C130.574 492.304 158.413 479.158 173.178 455.961C175.109 458.337 176.978 460.619 178.777 462.814L179.056 463.153L179.338 463.489L179.339 463.49C204.043 492.868 247.884 496.656 277.262 471.952C282.207 467.794 286.425 463.092 289.906 458.009C295.522 463.245 301.729 467.989 308.572 472.165C357.535 502.045 413.276 486.584 444.557 453.304C448.066 449.57 451.27 445.615 454.198 441.505C458.709 448.843 464.652 456.262 472.536 463.103V463.104C480.778 470.254 488.846 473.907 492.002 475.273C496.193 477.088 500.05 478.336 503.139 479.194C507.249 480.336 517.463 482.93 529.734 482.228L529.733 482.227C546.732 481.254 560.805 475.868 569.243 472.099C578.225 468.086 585.877 463.545 590.029 461.056C600.156 454.985 609.754 447.647 617.21 441.796C619.414 444.675 621.714 447.442 624.085 450.066C637.562 464.984 662.273 485.088 697.99 487.719C699.009 487.794 700.031 487.853 701.056 487.899C696.85 511.982 705.501 537.564 725.874 554.005C725.884 554.013 725.939 554.058 726.065 554.167C726.267 554.341 726.516 554.561 727.102 555.083C728.057 555.934 730.414 558.055 733.227 560.328C739.725 565.581 746.737 570.168 755.533 574.931C768.485 581.944 789.069 588.793 813.043 586.605C851.513 583.095 881.227 558.01 897.815 533.017C909.248 515.792 913.257 497.47 915.059 487.153C917.019 475.924 917.796 464.605 918.246 458.885L918.258 458.736L918.269 458.589L848.96 453.434L909.605 457.942C918.269 458.585 918.268 458.583 918.269 458.581C918.269 458.579 918.269 458.576 918.269 458.573C918.27 458.568 918.27 458.562 918.27 458.557C918.271 458.544 918.272 458.53 918.273 458.515C918.276 458.484 918.279 458.446 918.282 458.402C918.289 458.316 918.296 458.204 918.306 458.068C918.325 457.797 918.351 457.428 918.382 456.968C918.401 456.68 918.42 456.356 918.443 455.997C932.747 468.024 953.295 479.752 979.99 481.719C1010.46 483.963 1043.82 473.572 1069.75 450.106C1073 447.164 1076.08 444.062 1078.99 440.814C1089.36 464.002 1112.1 480.64 1139.21 481.916C1162.61 483.018 1183.86 472.407 1197.27 455.251C1209.42 470.814 1228.08 481.127 1249.35 481.964C1272.4 482.87 1293.26 472.447 1306.57 455.664C1318.72 470.997 1337.24 481.135 1358.33 481.964C1396.68 483.472 1428.99 453.603 1430.5 415.249C1431.64 386.269 1431.26 341.73 1425.62 303.032C1422.92 284.5 1418.26 261.673 1408.9 241.843C1401.61 226.397 1376.22 182.684 1322.47 186.184L1321.2 186.275C1301.13 187.849 1283.22 194.256 1268.2 202.069C1254.73 192.007 1236.77 184.668 1213.5 186.184L1212.22 186.275C1197.22 187.451 1183.43 191.329 1171.15 196.475C1158.89 188.858 1144.16 184.981 1128.67 186.289C1104.48 188.332 1084.23 202.533 1073.44 222.372C1066.27 214.577 1057.98 207.674 1048.47 201.869C999.748 172.137 944.317 187.3 912.951 220.238C912.537 212.945 912.109 205.621 911.663 198.296C911.177 190.314 909.361 182.729 906.445 175.743C931.826 162.096 946.997 133.43 942.123 103.387ZM626.047 231.761C607 254.713 597.988 284.273 593.814 307.244C587.899 306.704 581.915 306.917 576.018 307.898C576.06 301.623 576.154 295.983 576.326 291.593C576.696 282.192 577.324 270.379 577.876 260.683C578.149 255.885 578.398 251.698 578.578 248.715C578.668 247.225 578.742 246.037 578.792 245.229C578.817 244.824 578.836 244.514 578.849 244.309C578.855 244.206 578.86 244.13 578.863 244.08C578.865 244.055 578.865 244.036 578.866 244.025C578.867 244.02 578.867 244.016 578.867 244.014L578.895 243.568L578.918 243.122L578.165 243.084C578.166 243.084 578.167 243.083 578.168 243.083C578.905 243.12 578.918 243.121 578.918 243.121V243.111C578.918 243.106 578.918 243.098 578.919 243.088C578.92 243.068 578.922 243.04 578.924 243.004C578.925 242.974 578.927 242.939 578.929 242.899C593.513 239.377 609.387 235.601 626.047 231.761ZM772.793 201.821C772.778 203.449 772.819 205.089 772.92 206.739C773.034 208.607 773.144 210.475 773.256 212.342C771.066 210.787 768.804 209.295 766.469 207.869C764.282 206.535 762.081 205.293 759.87 204.137C764.172 203.358 768.48 202.586 772.793 201.821Z" fill="#4B4B4B"/>
<path d="M840.833 178.562C854.063 177.756 865.441 187.829 866.247 201.06C871.021 279.508 873.947 357.59 874.465 397.662C874.667 413.207 874.276 427.532 873.837 437.949C873.618 443.17 873.386 447.437 873.207 450.421C873.117 451.913 873.041 453.086 872.986 453.899C872.958 454.305 872.936 454.621 872.92 454.842C872.913 454.952 872.906 455.04 872.902 455.102C872.9 455.132 872.897 455.157 872.896 455.176C872.895 455.185 872.895 455.194 872.894 455.2C872.894 455.203 872.894 455.206 872.894 455.208L872.893 455.211L848.96 453.434L872.893 455.214L872.889 455.265L872.885 455.317C872.384 461.695 871.75 470.658 870.236 479.329C868.777 487.686 866.084 498.546 859.906 507.855C848.503 525.034 829.788 539.388 808.907 541.294C795.651 542.504 783.997 538.602 777.198 534.92C763.056 527.263 757.935 521.41 754.448 518.596C744.133 510.272 742.519 495.162 750.843 484.847C759.167 474.532 774.277 472.917 784.592 481.241C786.543 482.815 788.124 484.225 789.293 485.266C790.523 486.362 791.22 486.979 792.001 487.611C793.257 488.626 795.299 490.132 800.005 492.684C800.047 492.703 800.17 492.758 800.371 492.834C800.709 492.962 801.16 493.107 801.684 493.231C802.788 493.492 803.788 493.561 804.544 493.492C806.87 493.28 813.981 490.247 819.913 481.311C820.549 480.352 821.853 477.362 822.951 471.074C823.988 465.132 824.472 458.689 825.025 451.659C825.025 451.659 825.025 451.658 825.025 451.656C825.025 451.651 825.026 451.645 825.026 451.64C825.026 451.634 825.027 451.627 825.028 451.618C825.031 451.582 825.035 451.522 825.041 451.439C825.052 451.271 825.072 451.011 825.095 450.661C825.143 449.962 825.21 448.909 825.293 447.543C825.457 444.81 825.674 440.832 825.88 435.933C826.293 426.111 826.656 412.705 826.469 398.283C825.964 359.195 823.078 281.914 818.335 203.976C817.529 190.745 827.602 179.367 840.833 178.562ZM137.426 102.526C150.395 102.854 160.807 113.47 160.807 126.518C160.807 144.554 162.368 142.014 160.781 175.887C159.258 208.39 155.518 263.234 152.257 303.804C153.393 302.947 154.54 302.003 155.729 300.93L156.152 300.548L156.592 300.186C170.344 288.906 189.693 274.833 204.162 265.474C217.867 256.608 227.27 250.605 235.163 245.869C246.528 239.049 261.271 242.733 268.091 254.099C274.912 265.464 271.226 280.207 259.861 287.027C252.753 291.293 243.983 296.882 230.233 305.777C220.449 312.106 207.883 321.052 197.01 329.402C206.911 343.264 222.034 365.351 228.044 373.884C235.689 384.738 242.991 393.662 251.092 403.546L251.09 403.547C259.408 413.689 258.045 428.663 247.977 437.129C237.832 445.659 222.693 444.351 214.163 434.206L214.162 434.205L214.064 434.09L213.968 433.973C205.939 424.177 197.585 413.997 188.8 401.525C181.498 391.157 166.262 368.866 157.227 356.272C155.744 357.034 154.497 357.682 153.555 358.218C149.987 360.249 148.622 361.452 147.979 362.189C147.633 362.585 147.011 363.336 146.543 365.677C146.518 365.8 146.49 365.922 146.463 366.044C145.361 375.906 144.368 383.644 143.457 390.238C141.305 405.796 139.69 414.533 138.12 423.021C135.708 436.054 123.186 444.665 110.153 442.253C97.1196 439.841 88.5088 427.32 90.9205 414.286C92.4337 406.109 93.9025 398.18 95.9097 383.664C97.9156 369.158 100.441 348.117 103.794 307.556C107.159 266.837 111.247 207.496 112.834 173.64C114.455 139.046 112.807 153.427 112.807 126.518C112.807 113.263 123.553 102.518 136.807 102.518L137.426 102.526ZM317.827 257.663C334.421 242.644 355.504 236.353 373.708 237.694C393.411 239.145 408.062 250.363 417.193 260.47C426.14 270.374 432.726 282.416 435.087 291.964C440.763 314.916 440.615 340.577 436.753 362.999C433.034 384.594 425.104 407.563 411.402 422.142C392.795 441.938 360.388 450.484 332.273 433.326C305.04 416.707 289.994 381.133 289.531 330.334L289.52 327.903C289.521 296.965 300.616 273.241 317.827 257.663ZM663.638 257.894C682.245 238.098 714.652 229.551 742.767 246.708C770.433 263.592 785.521 300.036 785.52 352.132C785.52 383.071 774.425 406.795 757.213 422.372C740.619 437.391 719.536 443.682 701.333 442.341C681.629 440.889 666.978 429.672 657.847 419.565C648.9 409.661 642.314 397.62 639.953 388.071C634.277 365.119 634.425 339.457 638.287 317.035C642.006 295.44 649.936 272.472 663.638 257.894ZM869.675 90.8273C882.759 88.7046 895.087 97.5903 897.21 110.674C899.332 123.758 890.447 136.085 877.363 138.208C813.14 148.628 751.369 158.653 689.155 171.393C630.952 183.311 573.835 197.238 534.958 206.794C534.774 211.754 534.572 216.715 534.378 221.227C534.142 226.724 533.916 231.622 533.75 235.146C533.666 236.908 533.597 238.33 533.549 239.312C533.525 239.802 533.507 240.184 533.494 240.444C533.487 240.573 533.482 240.673 533.479 240.74C533.477 240.774 533.476 240.8 533.475 240.818C533.475 240.826 533.474 240.833 533.474 240.838V240.845V240.846L533.466 241L533.457 241.153C533.457 241.154 533.457 241.156 533.457 241.157C533.456 241.16 533.456 241.166 533.456 241.172C533.455 241.185 533.453 241.205 533.452 241.232C533.448 241.285 533.444 241.367 533.437 241.474C533.424 241.688 533.404 242.006 533.378 242.419C533.327 243.246 533.252 244.454 533.161 245.966C532.978 248.991 532.726 253.233 532.449 258.097C531.893 267.859 531.246 279.995 530.861 289.807C530.172 307.339 530.606 341.473 530.87 360.376C531.028 371.7 531.187 377.248 531.388 380.526C531.509 382.482 531.62 383.385 531.832 384.613L532.081 386L532.082 386.004L532.127 386.259C535.343 384.746 538.619 382.861 541.957 380.861C548.745 376.791 555.162 371.602 565.377 363.606L572.185 357.971C582.394 349.517 597.523 350.94 605.977 361.149C614.431 371.358 613.007 386.487 602.798 394.941L595.757 400.772L595.502 400.984L595.24 401.188C586.168 408.286 576.722 415.984 566.635 422.03C562.707 424.385 557.018 427.725 550.683 430.556C544.727 433.217 536.768 436.095 527.987 436.746L527.135 436.802C522.27 437.08 517.719 436.021 515.316 435.354C513.758 434.921 511.944 434.326 510.08 433.519C508.573 432.866 505.433 431.407 502.354 428.736C490.254 418.237 486.706 404.802 484.911 394.894V394.893L484.851 394.567V394.566C483.515 387.199 483.187 383.511 482.874 361.047C482.617 342.708 482.147 307.041 482.898 287.922C483.301 277.677 483.966 265.202 484.526 255.369C484.807 250.436 485.063 246.134 485.249 243.065C485.342 241.53 485.417 240.301 485.469 239.455C485.495 239.032 485.516 238.704 485.53 238.482C485.534 238.418 485.538 238.362 485.541 238.316C485.544 238.255 485.548 238.173 485.553 238.07C485.566 237.821 485.584 237.45 485.607 236.97C485.654 236.01 485.721 234.613 485.803 232.877C485.968 229.404 486.191 224.577 486.423 219.165L486.442 218.694C483.297 219.464 480.348 220.187 477.624 220.853C471.307 222.396 466.201 223.642 462.674 224.502C460.911 224.932 459.541 225.265 458.613 225.491C458.149 225.604 457.794 225.691 457.556 225.749C457.437 225.778 457.347 225.8 457.287 225.815C457.257 225.822 457.234 225.827 457.218 225.831C457.211 225.833 457.205 225.834 457.201 225.835C457.199 225.836 457.198 225.837 457.197 225.837H457.195C444.316 228.971 431.335 221.071 428.201 208.193C425.067 195.314 432.967 182.333 445.845 179.198H445.846C445.847 179.198 445.848 179.197 445.85 179.196C445.854 179.196 445.86 179.194 445.867 179.193C445.882 179.189 445.905 179.184 445.934 179.177C445.994 179.162 446.083 179.14 446.202 179.111C446.438 179.054 446.791 178.968 447.253 178.856C448.179 178.63 449.544 178.297 451.304 177.868C454.824 177.01 459.922 175.766 466.23 174.225C472.465 172.701 479.882 170.886 488.127 168.866C488.481 161.743 488.891 156.369 489.128 153.391C489.471 149.095 489.572 144.163 489.806 137.532C490.024 131.348 490.354 124.09 491.25 116.92C492.893 103.768 504.887 94.4374 518.04 96.0802C531.192 97.7233 540.523 109.718 538.879 122.87C538.266 127.778 537.988 133.225 537.777 139.224C537.585 144.669 537.435 151.245 537.002 156.869C575.165 147.534 626.847 135.157 679.525 124.369C742.867 111.398 805.611 101.221 869.675 90.8273ZM1324.75 231.636C1348.95 229.739 1361.99 249.061 1367.75 261.261C1374.2 274.933 1378.09 292.436 1380.6 309.6C1385.69 344.492 1386.12 385.98 1385.04 413.461C1384.52 426.705 1373.36 437.02 1360.11 436.499C1346.87 435.978 1336.55 424.819 1337.07 411.574C1338.09 385.673 1337.6 347.406 1333.1 316.528C1330.8 300.808 1327.73 288.922 1324.34 281.745C1324.21 281.469 1324.09 281.209 1323.97 280.964L1323.62 280.275C1315.31 282.233 1305.63 287.466 1295.61 295.445C1286.1 303.025 1278.03 311.677 1272.77 318.229C1276.77 351.145 1277.05 388.213 1276.06 413.461C1275.54 426.705 1264.38 437.02 1251.14 436.499C1237.89 435.978 1227.58 424.819 1228.1 411.574C1229.12 385.674 1228.63 347.406 1224.12 316.528C1221.83 300.808 1218.75 288.922 1215.37 281.745C1215.11 281.194 1214.86 280.705 1214.64 280.275C1206.33 282.233 1196.66 287.466 1186.64 295.445C1176.49 303.526 1167.99 312.826 1162.79 319.5C1163.63 333.729 1164.38 347.013 1164.93 356.343C1166.42 381.939 1166.84 405.362 1166.45 413.622C1165.82 426.862 1154.59 437.09 1141.35 436.467C1128.11 435.844 1117.88 424.605 1118.5 411.365C1118.76 405.764 1118.48 384.441 1117.01 359.129C1115.51 333.413 1112.53 280.354 1110.61 257.563C1109.49 244.355 1119.29 232.744 1132.5 231.628C1145.71 230.513 1157.32 240.315 1158.44 253.523C1158.51 254.432 1158.59 255.386 1158.67 256.382C1173.52 244.892 1193.46 233.385 1215.78 231.636C1239.97 229.739 1253.02 249.061 1258.78 261.261C1259.05 261.837 1259.31 262.421 1259.58 263.011C1261.56 261.283 1263.61 259.573 1265.71 257.899C1280.74 245.924 1301.45 233.463 1324.75 231.636ZM945.638 251.894C964.245 232.098 996.652 223.551 1024.77 240.708C1052.43 257.592 1067.52 294.036 1067.52 346.132C1067.52 377.071 1056.42 400.795 1039.21 416.372C1022.62 431.391 1001.54 437.682 983.333 436.341C963.629 434.889 948.978 423.672 939.847 413.565C930.9 403.661 924.314 391.62 921.953 382.071C916.277 359.119 916.425 333.457 920.287 311.035C924.006 289.44 931.936 266.472 945.638 251.894ZM717.762 287.682C711.641 283.946 703.85 285.197 698.614 290.768C694.441 295.208 688.704 307.105 685.59 325.183C682.619 342.434 682.767 361.254 686.549 376.548C686.49 376.309 686.861 377.655 688.272 380.164C689.571 382.475 691.345 385.042 693.464 387.388C698.011 392.42 702.049 394.264 704.859 394.471C710.124 394.859 718.253 392.894 725.003 386.784C731.137 381.233 737.52 370.955 737.52 352.131C737.521 306.832 724.333 291.692 717.762 287.682ZM370.181 285.564C364.916 285.176 356.787 287.142 350.037 293.251C343.903 298.802 337.52 309.081 337.52 327.904C337.52 373.203 350.707 388.344 357.278 392.354C363.399 396.089 371.19 394.839 376.426 389.268C380.599 384.828 386.336 372.93 389.45 354.852C392.328 338.14 392.279 319.956 388.835 304.931L388.497 303.513C388.499 303.552 388.09 302.223 386.768 299.871C385.469 297.56 383.695 294.993 381.576 292.648C377.029 287.615 372.991 285.771 370.181 285.564ZM999.762 281.682C993.641 277.946 985.85 279.197 980.614 284.768C976.441 289.208 970.704 301.105 967.59 319.183C964.619 336.434 964.767 355.254 968.549 370.548C968.49 370.309 968.861 371.655 970.272 374.164C971.571 376.475 973.345 379.042 975.464 381.388C980.011 386.42 984.049 388.264 986.859 388.471C992.124 388.859 1000.25 386.894 1007 380.784C1013.14 375.233 1019.52 364.955 1019.52 346.131C1019.52 300.832 1006.33 285.692 999.762 281.682Z" fill="white"/>
</g>
<defs>
<clipPath id="clip0_60_2">
<rect width="1476" height="632" fill="white"/>
</clipPath>
</defs>
</svg>
