<svg width="200" height="200" viewBox="0 0 200 200" fill="none" xmlns="http://www.w3.org/2000/svg">
<path d="M18.0127 66.1968C12.9387 66.1968 8.62579 64.4976 5.074 61.0993C1.69133 57.701 0 53.3681 0 48.1007C0 43.1731 1.69133 38.9252 5.074 35.357C8.62579 31.7887 12.9387 30.0046 18.0127 30.0046C23.0867 30.0046 27.3996 31.7887 30.9514 35.357C34.6723 38.9252 36.5328 43.1731 36.5328 48.1007C36.5328 53.1982 34.6723 57.531 30.9514 61.0993C27.3996 64.4976 23.0867 66.1968 18.0127 66.1968ZM18.0127 158.971C12.9387 158.971 8.62579 157.272 5.074 153.874C1.69133 150.475 0 146.142 0 140.875C0 135.778 1.69133 131.53 5.074 128.131C8.62579 124.563 12.9387 122.779 18.0127 122.779C23.0867 122.779 27.3996 124.563 30.9514 128.131C34.6723 131.53 36.5328 135.778 36.5328 140.875C36.5328 145.973 34.6723 150.305 30.9514 153.874C27.3996 157.272 23.0867 158.971 18.0127 158.971Z" fill="#BB659E"/>
<path d="M131.755 191C118.901 191 107.4 188.961 97.2516 184.883C87.1036 180.805 79.1543 175.198 73.4038 168.061C67.6533 160.755 64.778 152.514 64.778 143.338C64.778 136.882 66.6385 132.209 70.3594 129.32C74.2495 126.262 80.1691 124.818 88.1184 124.987C87.7801 129.745 87.611 132.889 87.611 134.418C87.611 145.802 91.4165 154.553 99.0275 160.67C106.638 166.617 117.548 169.591 131.755 169.591C161.184 169.591 175.899 159.481 175.899 139.26C175.899 129.235 172.431 121.589 165.497 116.322C158.562 110.884 148.499 108.166 135.307 108.166H126.427C123.383 108.166 120.846 107.231 118.816 105.362C116.956 103.323 116.025 100.774 116.025 97.7159C116.025 94.4875 116.956 91.9387 118.816 90.0696C120.846 88.2006 123.383 87.266 126.427 87.266H135.56C146.385 87.266 154.926 84.6323 161.184 79.3649C167.611 73.9276 170.825 66.7061 170.825 57.7006C170.825 48.3552 167.611 41.3036 161.184 36.546C154.926 31.7883 145.624 29.4095 133.277 29.4095C120.085 29.4095 109.937 31.7883 102.833 36.546C95.8985 41.1337 92.4313 47.8454 92.4313 56.6811C92.4313 60.2493 92.7695 63.3078 93.4461 65.8566C86.3425 66.1964 80.592 64.8371 76.1945 61.7786C71.797 58.7201 69.5983 54.4721 69.5983 49.0348C69.5983 41.2187 72.3044 34.2521 77.7167 28.1351C83.2981 21.8482 90.9091 16.9206 100.55 13.3524C110.19 9.78412 121.099 8 133.277 8C145.624 8 156.448 10.039 165.751 14.117C175.222 18.195 182.495 23.9722 187.569 31.4485C192.643 38.9248 195.18 47.6755 195.18 57.7006C195.18 75.202 185.962 88.4554 167.526 97.461C178.858 102.049 187.061 107.656 192.135 114.283C197.378 120.909 200 129.235 200 139.26C200 155.233 193.911 167.891 181.734 177.237C169.556 186.412 152.896 191 131.755 191Z" fill="#BB659E"/>
</svg>
